<?xml version="1.0" encoding="utf-8"?>
<!-- Generator: Adobe Illustrator 28.0.0, SVG Export Plug-In . SVG Version: 6.00 Build 0)  -->
<svg version="1.1" id="Layer_1" xmlns="http://www.w3.org/2000/svg" xmlns:xlink="http://www.w3.org/1999/xlink" x="0px" y="0px"
	 viewBox="0 0 59.6 59.6" style="enable-background:new 0 0 59.6 59.6;" xml:space="preserve">
<style type="text/css">
	.st0{fill:none;stroke:#FFFFFF;stroke-width:1.5;stroke-miterlimit:10;}
</style>
<path class="st0" d="M19.6,25.2c0.8,0,1.6-0.2,2.3-0.7s1.2-1.1,1.5-1.9c0.3-0.8,0.4-1.6,0.2-2.4c-0.2-0.8-0.6-1.6-1.1-2.1
	c-0.6-0.6-1.3-1-2.1-1.1c-0.8-0.2-1.7-0.1-2.4,0.2c-0.8,0.3-1.4,0.9-1.9,1.5c-0.5,0.7-0.7,1.5-0.7,2.3c0,0.6,0.1,1.1,0.3,1.6
	c0.2,0.5,0.5,1,0.9,1.4c0.4,0.4,0.9,0.7,1.4,0.9C18.5,25.1,19.1,25.2,19.6,25.2z"/>
<path class="st0" d="M23.8,28.1c-0.6-0.2-1.3-0.3-1.9-0.3h-4.5c-1.5,0-2.9,0.6-3.9,1.6c-1,1-1.6,2.4-1.6,3.9v3.8
	c2.5,1,5.1,1.5,7.8,1.4h0.2"/>
<path class="st0" d="M40.3,25.2c0.8,0,1.6-0.2,2.3-0.7c0.7-0.5,1.2-1.1,1.5-1.9c0.3-0.8,0.4-1.6,0.2-2.4c-0.2-0.8-0.6-1.6-1.1-2.1
	c-0.6-0.6-1.3-1-2.1-1.1c-0.8-0.2-1.7-0.1-2.4,0.2c-0.8,0.3-1.4,0.9-1.9,1.5c-0.5,0.7-0.7,1.5-0.7,2.3c0,1.1,0.4,2.2,1.2,3
	S39.2,25.2,40.3,25.2z"/>
<path class="st0" d="M40.1,38.6h0.2c2.7,0,5.3-0.5,7.8-1.4v-3.8c0-1.5-0.6-2.9-1.6-3.9c-1-1-2.4-1.6-3.9-1.6h-4.5
	c-0.6,0-1.3,0.1-1.9,0.3"/>
<path class="st0" d="M26.2,27.1c0.4,0.8,1.1,1.5,1.9,1.9c0.6,0.3,1.2,0.5,1.9,0.5c0.8,0,1.5-0.2,2.2-0.6c0.7-0.4,1.2-1,1.5-1.7
	c0.2-0.3,0.3-0.6,0.3-1c0.1-0.7,0.1-1.3-0.1-2c-0.2-0.6-0.5-1.2-1-1.7c-0.5-0.5-1-0.9-1.6-1.1c-0.6-0.2-1.3-0.3-2-0.2
	c-0.7,0.1-1.3,0.3-1.9,0.7c-0.6,0.4-1,0.9-1.3,1.5c-0.3,0.6-0.5,1.2-0.5,1.9C25.8,25.9,25.9,26.5,26.2,27.1z"/>
<path class="st0" d="M32.2,32h-4.5c-1.5,0-2.9,0.6-3.9,1.6c-1,1-1.6,2.4-1.6,3.9v3.8c5,1.9,10.6,1.9,15.6,0v-3.8
	c0-0.7-0.1-1.4-0.4-2.1c-0.3-0.7-0.7-1.3-1.2-1.8c-0.5-0.5-1.1-0.9-1.8-1.2C33.7,32.2,33,32,32.2,32z"/>
</svg>
