<?xml version="1.0" encoding="utf-8"?>
<!-- Generator: Adobe Illustrator 28.0.0, SVG Export Plug-In . SVG Version: 6.00 Build 0)  -->
<svg version="1.1" id="Layer_1" xmlns="http://www.w3.org/2000/svg" xmlns:xlink="http://www.w3.org/1999/xlink" x="0px" y="0px"
	 viewBox="0 0 59.6 59.6" style="enable-background:new 0 0 59.6 59.6;" xml:space="preserve">
<style type="text/css">
	.st0{fill:none;stroke:#FFFFFF;stroke-width:2;stroke-miterlimit:10;}
</style>
<path class="st0" d="M22.9,20.9c0.7,1.5,1.9,2.7,3.4,3.4c1.1,0.6,2.3,0.8,3.5,0.8c1.4,0,2.9-0.4,4.1-1.2c1.2-0.8,2.2-1.8,2.9-3.1
	c0.3-0.6,0.5-1.2,0.6-1.8c0.3-1.2,0.2-2.5-0.1-3.7s-0.9-2.3-1.8-3.2c-0.8-0.9-1.9-1.6-3-2c-1.2-0.4-2.4-0.6-3.6-0.4
	c-1.2,0.2-2.4,0.6-3.4,1.3c-1,0.7-1.9,1.6-2.4,2.7c-0.6,1.1-0.9,2.3-0.9,3.5C22.1,18.6,22.3,19.8,22.9,20.9L22.9,20.9z"/>
<path class="st0" d="M34,30h-8.3c-2.7,0-5.3,1.1-7.2,3c-1.9,1.9-3,4.5-3,7.2v7.1c9.3,3.5,19.5,3.5,28.8,0v-7.1
	c0-1.3-0.3-2.7-0.8-3.9c-0.5-1.2-1.3-2.4-2.2-3.3c-1-0.9-2.1-1.7-3.3-2.2C36.7,30.2,35.3,30,34,30z"/>
</svg>
