<?xml version="1.0" encoding="utf-8"?>
<!-- Generator: Adobe Illustrator 28.0.0, SVG Export Plug-In . SVG Version: 6.00 Build 0)  -->
<svg version="1.1" id="Layer_1" xmlns="http://www.w3.org/2000/svg" xmlns:xlink="http://www.w3.org/1999/xlink" x="0px" y="0px"
	 viewBox="0 0 59.6 59.6" style="enable-background:new 0 0 59.6 59.6;" xml:space="preserve">
<style type="text/css">
	.st0{fill:none;stroke:#FFFFFF;stroke-width:2;stroke-linecap:round;stroke-miterlimit:10;stroke-dasharray:2,5;}
	.st1{fill:none;stroke:#FFFFFF;stroke-width:2;stroke-linecap:round;stroke-miterlimit:10;}
	.st2{fill:none;stroke:#FFFFFF;stroke-width:2;stroke-miterlimit:10;}
</style>
<path class="st0" d="M46.6,17.9c1.8,2.4,3,5.2,3.6,8.1c0.6,2.9,0.6,5.9-0.1,8.8c-0.7,2.9-2,5.6-3.8,8c-1.8,2.3-4.2,4.3-6.8,5.6"/>
<path class="st1" d="M36,49.8c-3.5,1.1-7.2,1.2-10.7,0.4c-3.6-0.8-6.8-2.5-9.5-5c-2.7-2.5-4.7-5.6-5.8-9.1C8.9,32.7,8.7,29,9.5,25.4
	c0.8-3.6,2.5-6.9,4.9-9.6c2.4-2.7,5.5-4.7,9-5.9c3.5-1.1,7.2-1.4,10.7-0.6c3.6,0.7,6.9,2.4,9.6,4.8"/>
<path class="st2" d="M38.7,14.4l5.8,0.8l-0.6-5.8"/>
<path class="st2" d="M28.1,19.8c0,4.3,0.1,8.5,0.1,12.8l9.7,1.8"/>
</svg>
