<?xml version="1.0" encoding="utf-8"?>
<!-- Generator: Adobe Illustrator 28.0.0, SVG Export Plug-In . SVG Version: 6.00 Build 0)  -->
<svg version="1.1" id="Layer_1" xmlns="http://www.w3.org/2000/svg" xmlns:xlink="http://www.w3.org/1999/xlink" x="0px" y="0px"
	 viewBox="0 0 173.4 68" style="enable-background:new 0 0 173.4 68;" xml:space="preserve">
<style type="text/css">
	.st0{fill:#FFFFFF;}
	.st1{fill:#8BC53F;}
	.st2{fill:#006838;}
	.st3{fill:#231F20;}
</style>
<g>
	<path class="st0" d="M28.9,50.9c-0.2,1-0.5,1.8-0.7,2.5c0-0.3-0.1-0.6-0.1-1l0,0c0.2-0.4,0.5-0.8,0.7-1.2
		C28.7,51.1,28.8,51,28.9,50.9L28.9,50.9z"/>
	<g>
		<path class="st1" d="M40.4,9.2c-3.4,2.3-6.7,4.6-10.1,6.9c0.3,0.5,0.6,1.1,0.9,1.7c0.2-0.2,0.5-0.5,0.7-0.7l1.1-1.2l0.6,1.5
			c2.3,5.6,3.4,11.3,3.3,17.1c-0.1,3.2-0.2,7.5-2.8,12.1c-0.1,0.2-0.3,0.4-0.4,0.7c0.7-0.8,1.8-1.9,2.9-3.3c1.5-1.9,4.2-5.3,5.8-9.7
			c2.8-7.6,1.4-14.5,0.9-16.9C42.5,13.7,41.3,11,40.4,9.2L40.4,9.2z"/>
		<path class="st1" d="M32.6,17.7c-0.3,0.4-0.7,0.7-1,1.1c-0.1,0.1-0.3,0.3-0.4,0.4c-1,1.1-2,2.1-3,3.2c-1.3,1.4-2.7,2.9-4,4.3
			c0.4,0.5,0.8,1,1.3,1.8l1.6-2.1l0.8,1.4c2.1,3.7,3.3,7.9,3.6,12.1c0.1,1.7,0.1,3.4-0.1,5.1c-0.1,0.7-0.2,1.4-0.3,2
			c-0.1,0.8-0.3,1.6-0.5,2.4c0.8-0.9,1.6-2,2.4-3.4c2.4-4.3,2.6-8.3,2.7-11.6C36,27.5,34.3,21.8,32.6,17.7L32.6,17.7z"/>
		<path class="st1" d="M27.1,28.2c-0.3,0.4-4.3,5.6-5.7,7.4c3.1,2.6,4.6,5.3,5.3,6.8c0.2,0.3,0.8,1.8,1.3,3.9
			c0.6,2.3,0.7,4.3,0.6,5.8c0.3-0.6,0.6-1.4,0.8-2.2c0.1-0.4,0.2-0.8,0.3-1.2l0,0c0.6-2.3,1-5.3,0.8-8.9
			C30.2,34.4,28.3,30.4,27.1,28.2L27.1,28.2z"/>
	</g>
	<g>
		<path class="st2" d="M42.7,7.7c1.4,2.4,3.5,5.3,6.6,8.3c2.4,2.3,4.7,4,6.7,5.2c0-1.3,0-4.8-2.4-8.1C49.8,7.8,43.5,7.7,42.7,7.7z"
			/>
		<path class="st2" d="M59.5,16.2c-0.6,3.2-1.2,6.9-1.4,10.9c-0.1,2-0.2,3.8-0.1,5.6c0.3-0.2,4.8-2.9,5.1-8.3
			C63.3,19.6,59.9,16.6,59.5,16.2L59.5,16.2z"/>
		<path class="st2" d="M47.9,18.9c0.9,2.2,2.3,4.9,4.5,7.8c1.5,2,3.1,3.6,4.5,4.8c0.2-0.6,1.2-4.3-0.9-7.9
			C53.4,19.2,48.3,18.9,47.9,18.9z"/>
		<path class="st2" d="M47.2,27.3c1.1,2.4,2.3,5.4,3.1,9.1c0.6,2.8,0.9,5.4,1.1,7.5c3-2.4,4.3-6.4,3.2-10.1
			C53.6,30.5,50.7,28,47.2,27.3L47.2,27.3z"/>
		<path class="st2" d="M65.5,27.9c-2.1,1.3-5.5,3.8-8.3,8.1c-2,3.1-3,6.1-3.5,8.2c1.3-0.3,6.1-1.9,9.3-6.8
			C65.6,33.4,65.6,29.4,65.5,27.9L65.5,27.9z"/>
		<path class="st2" d="M64.2,42.5c-2.9,0.5-7.3,1.5-11.9,4.1c-3.7,2.1-6.4,4.5-8.2,6.3c1.4,0.3,6.8,1.3,12.4-1.8
			C61.6,48.4,63.6,43.9,64.2,42.5z"/>
		<path class="st2" d="M44.3,35c3.8,1.2,6.2,4.9,5.8,8.9c-0.4,3.9-3.5,7.1-7.4,7.5c0.9-2.5,1.9-6.1,2-10.4
			C44.8,38.7,44.6,36.7,44.3,35z"/>
		<path class="st2" d="M41.1,42.3c1.9,4.6,1.3,9.3-1.3,11.4c-2.3,1.9-6.2,1.6-7.3,1.5c-1.6-0.1-2.8-0.5-3.7-0.8
			c1.8-0.7,5.1-2.2,8.1-5.4C39.3,46.6,40.5,44,41.1,42.3z"/>
		<path class="st2" d="M54.1,54.7c-7.3-1.2-11-0.3-13,0.7c-0.5,0.2-1.7,1-3.5,1.3c-2.2,0.5-4.2,0.2-5.5-0.2
			c0.7,0.6,5.1,4.3,11.4,3.7C49.9,59.7,53.5,55.4,54.1,54.7L54.1,54.7z"/>
	</g>
	<g>
		<path class="st3" d="M81.5,17.1v7.3l6-7.3h3.8l-6.1,7.5l6.2,7.8h-4.1l-5.8-7.6v7.6h-3.2V17.1C78.3,17.1,81.5,17.1,81.5,17.1z"/>
		<path class="st3" d="M92.6,32.3V17.1H96v15.3L92.6,32.3L92.6,32.3z"/>
		<path class="st3" d="M102.5,32.1c-0.8-0.2-1.6-0.6-2.3-1.3c-0.6-0.6-1-1.3-1.2-2.1c-0.2-0.8-0.2-1.6-0.2-2.4v-9.1h3.2v8.4
			c0,1.4,0.1,2.5,0.5,3.3c0.3,0.8,1.3,1.1,3,1.1l3.8,0v2.5h-4.1C104.2,32.3,103.3,32.3,102.5,32.1L102.5,32.1z"/>
		<path class="st3" d="M111,32.3V17.1h3.4v15.3L111,32.3L111,32.3z"/>
		<path class="st3" d="M122.2,17.1l3.9,11.7l3.9-11.7h4.7v15.3h-3.1l0.3-11.9l-3.9,11.9h-3.4l-4-12l0.3,12h-3.3V17.1
			C117.5,17.1,122.2,17.1,122.2,17.1z"/>
		<path class="st3" d="M137.2,21.3c0.4-1.1,0.9-2,1.6-2.7c0.7-0.7,1.6-1.2,2.8-1.5c0.4-0.1,0.9-0.2,1.3-0.2s0.9-0.1,1.4-0.1
			c0.5,0,1,0,1.5,0.1c0.5,0.1,1,0.2,1.4,0.3c1.1,0.3,2.1,0.8,2.8,1.5c0.7,0.7,1.3,1.6,1.6,2.7c0.1,0.5,0.3,1,0.3,1.6
			c0.1,0.6,0.1,1.1,0.1,1.7c0,0.6,0,1.2-0.1,1.8c-0.1,0.6-0.2,1.1-0.3,1.7c-0.3,1.2-0.9,2.1-1.6,2.8s-1.7,1.2-2.8,1.5
			c-0.5,0.1-0.9,0.2-1.4,0.2c-0.5,0-1,0.1-1.5,0.1c-0.4,0-0.9,0-1.3-0.1c-0.4-0.1-0.9-0.1-1.3-0.2c-1.2-0.3-2.1-0.8-2.8-1.5
			s-1.3-1.6-1.6-2.8c-0.1-0.5-0.3-1-0.3-1.6c-0.1-0.6-0.1-1.2-0.1-1.8c0-0.6,0-1.2,0.1-1.8C137,22.4,137.1,21.8,137.2,21.3
			L137.2,21.3L137.2,21.3z M140.6,22.4c-0.1,0.4-0.2,0.8-0.2,1.2c0,0.4-0.1,0.8-0.1,1.2s0,0.8,0.1,1.2c0,0.4,0.1,0.8,0.2,1.1
			c0.2,0.7,0.4,1.2,0.8,1.7c0.4,0.5,0.9,0.8,1.5,1.1c0.2,0.1,0.5,0.2,0.8,0.2c0.3,0,0.5,0.1,0.8,0.1c0.3,0,0.5,0,0.8-0.1
			c0.3,0,0.5-0.1,0.8-0.2c0.7-0.2,1.2-0.6,1.5-1.1c0.4-0.5,0.6-1,0.8-1.7c0.1-0.4,0.2-0.7,0.2-1.1c0-0.4,0.1-0.8,0.1-1.2
			s0-0.8-0.1-1.2c0-0.4-0.1-0.8-0.2-1.1c-0.1-0.7-0.4-1.2-0.8-1.7c-0.4-0.5-0.9-0.8-1.5-1.1c-0.2-0.1-0.5-0.2-0.8-0.2
			c-0.3,0-0.5-0.1-0.8-0.1c-0.3,0-0.5,0-0.8,0.1c-0.3,0-0.5,0.1-0.8,0.2c-0.7,0.2-1.2,0.6-1.5,1.1C141,21.2,140.7,21.8,140.6,22.4
			L140.6,22.4L140.6,22.4z"/>
		<path class="st3" d="M82.6,38.5l3.5,10.7l3.5-10.7H94v13.9h-2.9l0.2-10.8l-3.6,10.8h-3.1L81,41.4l0.3,10.9h-3V38.5H82.6L82.6,38.5
			z"/>
		<path class="st3" d="M99.7,38.5v6.7l5.5-6.7h3.5l-5.6,6.8l5.6,7.1H105l-5.3-6.9v6.9h-2.9V38.5L99.7,38.5L99.7,38.5z"/>
		<path class="st3" d="M109.3,42.3c0.3-1,0.8-1.8,1.5-2.5c0.7-0.6,1.5-1.1,2.6-1.4c0.4-0.1,0.8-0.2,1.2-0.2c0.4,0,0.8-0.1,1.2-0.1
			c0.4,0,0.9,0,1.3,0.1c0.5,0.1,0.9,0.1,1.3,0.3c1,0.3,1.9,0.7,2.5,1.4c0.7,0.6,1.1,1.5,1.5,2.5c0.1,0.5,0.2,1,0.3,1.5
			c0.1,0.5,0.1,1,0.1,1.5c0,0.6,0,1.1-0.1,1.6c-0.1,0.5-0.2,1-0.3,1.5c-0.3,1-0.8,1.9-1.5,2.5c-0.7,0.6-1.5,1.1-2.6,1.3
			c-0.4,0.1-0.8,0.2-1.3,0.2c-0.4,0-0.9,0.1-1.3,0.1c-0.4,0-0.8,0-1.2-0.1s-0.8-0.1-1.2-0.2c-1-0.2-1.9-0.7-2.6-1.3
			c-0.7-0.6-1.2-1.5-1.5-2.5c-0.1-0.5-0.2-0.9-0.3-1.5c-0.1-0.5-0.1-1.1-0.1-1.6s0-1.1,0.1-1.6C109,43.3,109.1,42.8,109.3,42.3
			L109.3,42.3L109.3,42.3z M112.3,43.3c-0.1,0.3-0.2,0.7-0.2,1.1c0,0.4-0.1,0.7-0.1,1.1c0,0.3,0,0.7,0.1,1.1c0,0.4,0.1,0.7,0.2,1
			c0.1,0.6,0.4,1.1,0.7,1.5s0.8,0.8,1.4,1c0.2,0.1,0.5,0.1,0.7,0.2c0.2,0,0.5,0.1,0.7,0.1c0.2,0,0.5,0,0.7-0.1
			c0.2,0,0.5-0.1,0.7-0.2c0.6-0.2,1.1-0.5,1.4-1c0.3-0.4,0.6-1,0.7-1.5c0.1-0.3,0.1-0.7,0.2-1c0-0.4,0.1-0.7,0.1-1.1
			c0-0.4,0-0.7-0.1-1.1c0-0.4-0.1-0.7-0.2-1c-0.1-0.6-0.4-1.1-0.7-1.6c-0.3-0.4-0.8-0.8-1.4-1c-0.2-0.1-0.5-0.1-0.7-0.2
			c-0.2,0-0.5-0.1-0.7-0.1c-0.2,0-0.5,0-0.7,0.1c-0.2,0-0.5,0.1-0.7,0.2c-0.6,0.2-1,0.5-1.4,1C112.7,42.2,112.5,42.7,112.3,43.3
			L112.3,43.3L112.3,43.3z"/>
		<path class="st3" d="M131.1,38.5C131.1,38.5,131.1,38.5,131.1,38.5l0.8,0c0.2,0,0.5,0,0.7,0c0.4,0,0.9,0.1,1.3,0.2
			c0.4,0.1,0.8,0.3,1.2,0.5c0.7,0.4,1.2,0.9,1.5,1.6c0.3,0.7,0.4,1.4,0.5,2.2c0,0.7-0.1,1.4-0.4,2c-0.3,0.6-0.7,1.2-1.2,1.6
			c-0.5,0.3-1,0.6-1.6,0.7c-0.6,0.1-1.2,0.2-1.8,0.2h-0.9l-3.5,0v4.9h-2.9V38.5L131.1,38.5L131.1,38.5z M131,40.9h-3.4V45h3.6
			c0.7,0,1.3-0.1,1.8-0.4s0.8-0.8,0.8-1.6c0-0.9-0.2-1.5-0.8-1.7C132.4,41.1,131.8,41,131,40.9L131,40.9L131,40.9z"/>
		<path class="st3" d="M138.6,42.3c0.3-1,0.8-1.8,1.5-2.5c0.7-0.6,1.5-1.1,2.6-1.4c0.4-0.1,0.8-0.2,1.2-0.2c0.4,0,0.8-0.1,1.2-0.1
			c0.4,0,0.9,0,1.3,0.1s0.9,0.1,1.3,0.3c1,0.3,1.9,0.7,2.5,1.4c0.7,0.6,1.1,1.5,1.5,2.5c0.1,0.5,0.2,1,0.3,1.5
			c0.1,0.5,0.1,1,0.1,1.5c0,0.6,0,1.1-0.1,1.6c-0.1,0.5-0.2,1-0.3,1.5c-0.3,1-0.8,1.9-1.5,2.5c-0.7,0.6-1.5,1.1-2.6,1.3
			c-0.4,0.1-0.8,0.2-1.3,0.2c-0.4,0-0.9,0.1-1.3,0.1c-0.4,0-0.8,0-1.2-0.1s-0.8-0.1-1.2-0.2c-1-0.2-1.9-0.7-2.6-1.3
			c-0.7-0.6-1.2-1.5-1.5-2.5c-0.1-0.5-0.2-0.9-0.3-1.5c-0.1-0.5-0.1-1.1-0.1-1.6s0-1.1,0.1-1.6C138.3,43.3,138.4,42.8,138.6,42.3
			L138.6,42.3L138.6,42.3z M141.6,43.3c-0.1,0.3-0.2,0.7-0.2,1.1c0,0.4-0.1,0.7-0.1,1.1c0,0.3,0,0.7,0.1,1.1c0,0.4,0.1,0.7,0.2,1
			c0.1,0.6,0.4,1.1,0.7,1.5s0.8,0.8,1.4,1c0.2,0.1,0.5,0.1,0.7,0.2c0.2,0,0.5,0.1,0.7,0.1c0.2,0,0.5,0,0.7-0.1
			c0.2,0,0.5-0.1,0.7-0.2c0.6-0.2,1.1-0.5,1.4-1c0.3-0.4,0.6-1,0.7-1.5c0.1-0.3,0.1-0.7,0.2-1c0-0.4,0.1-0.7,0.1-1.1
			c0-0.4,0-0.7-0.1-1.1c0-0.4-0.1-0.7-0.2-1c-0.1-0.6-0.4-1.1-0.7-1.6c-0.3-0.4-0.8-0.8-1.4-1c-0.2-0.1-0.5-0.1-0.7-0.2
			c-0.2,0-0.5-0.1-0.7-0.1c-0.2,0-0.5,0-0.7,0.1c-0.2,0-0.5,0.1-0.7,0.2c-0.6,0.2-1,0.5-1.4,1C142,42.2,141.8,42.7,141.6,43.3
			L141.6,43.3L141.6,43.3z"/>
	</g>
</g>
</svg>
