<?xml version="1.0" encoding="utf-8"?>
<!-- Generator: Adobe Illustrator 28.0.0, SVG Export Plug-In . SVG Version: 6.00 Build 0)  -->
<svg version="1.1" id="Layer_1" xmlns="http://www.w3.org/2000/svg" xmlns:xlink="http://www.w3.org/1999/xlink" x="0px" y="0px"
	 viewBox="0 0 232 68" style="enable-background:new 0 0 232 68;" xml:space="preserve">
<style type="text/css">
	.st0{fill:#FFFFFF;}
</style>
<g>
	<path class="st0" d="M58.1,51.2c-0.2,1-0.5,1.8-0.7,2.5c0-0.3-0.1-0.6-0.1-1l0,0c0.2-0.4,0.5-0.8,0.7-1.2
		C58,51.4,58.1,51.3,58.1,51.2L58.1,51.2z"/>
	<g>
		<path class="st0" d="M69.6,9.4c-3.4,2.3-6.7,4.6-10.1,6.9c0.3,0.5,0.6,1.1,0.9,1.7c0.2-0.2,0.5-0.5,0.7-0.7l1.1-1.2l0.6,1.5
			c2.3,5.6,3.4,11.3,3.3,17.1c-0.1,3.2-0.2,7.5-2.8,12.1c-0.1,0.2-0.3,0.4-0.4,0.7c0.7-0.8,1.8-1.9,2.9-3.3c1.5-1.9,4.2-5.3,5.8-9.7
			c2.8-7.6,1.4-14.5,0.9-16.9C71.8,13.9,70.6,11.2,69.6,9.4L69.6,9.4z"/>
		<path class="st0" d="M61.9,17.9c-0.3,0.4-0.7,0.7-1,1.1c-0.1,0.1-0.3,0.3-0.4,0.4c-1,1.1-2,2.1-3,3.2c-1.3,1.4-2.7,2.9-4,4.3
			c0.4,0.5,0.8,1,1.3,1.8l1.6-2.1l0.8,1.4c2.1,3.7,3.3,7.9,3.6,12.1c0.1,1.7,0.1,3.4-0.1,5.1c-0.1,0.7-0.2,1.4-0.3,2
			c-0.1,0.8-0.3,1.6-0.5,2.4c0.8-0.9,1.6-2,2.4-3.4c2.4-4.3,2.6-8.3,2.7-11.6C65.3,27.8,63.6,22,61.9,17.9L61.9,17.9z"/>
		<path class="st0" d="M56.4,28.4c-0.3,0.4-4.3,5.6-5.7,7.4c3.1,2.6,4.6,5.3,5.3,6.8c0.2,0.3,0.8,1.8,1.3,3.9
			c0.6,2.3,0.7,4.3,0.6,5.8c0.3-0.6,0.6-1.4,0.8-2.2c0.1-0.4,0.2-0.8,0.3-1.2l0,0c0.6-2.3,1-5.3,0.8-8.9
			C59.5,34.6,57.6,30.6,56.4,28.4L56.4,28.4z"/>
	</g>
	<g>
		<path class="st0" d="M72,7.9c1.4,2.4,3.5,5.3,6.6,8.3c2.4,2.3,4.7,4,6.7,5.2c0-1.3,0-4.8-2.4-8.1C79.1,8.1,72.8,7.9,72,7.9z"/>
		<path class="st0" d="M88.8,16.5c-0.6,3.2-1.2,6.9-1.4,10.9c-0.1,2-0.2,3.8-0.1,5.6c0.3-0.2,4.8-2.9,5.1-8.3
			C92.5,19.8,89.2,16.8,88.8,16.5L88.8,16.5z"/>
		<path class="st0" d="M77.2,19.1c0.9,2.2,2.3,4.9,4.5,7.8c1.5,2,3.1,3.6,4.5,4.8c0.2-0.6,1.2-4.3-0.9-7.9
			C82.7,19.5,77.6,19.1,77.2,19.1z"/>
		<path class="st0" d="M76.5,27.6c1.1,2.4,2.3,5.4,3.1,9.1c0.6,2.8,0.9,5.4,1.1,7.5c3-2.4,4.3-6.4,3.2-10.1
			C82.9,30.8,80,28.2,76.5,27.6L76.5,27.6z"/>
		<path class="st0" d="M94.8,28.2c-2.1,1.3-5.5,3.8-8.3,8.1c-2,3.1-3,6.1-3.5,8.2c1.3-0.3,6.1-1.9,9.3-6.8
			C94.9,33.7,94.9,29.7,94.8,28.2L94.8,28.2z"/>
		<path class="st0" d="M93.5,42.8c-2.9,0.5-7.3,1.5-11.9,4.1c-3.7,2.1-6.4,4.5-8.2,6.3c1.4,0.3,6.8,1.3,12.4-1.8
			C90.8,48.6,92.9,44.2,93.5,42.8z"/>
		<path class="st0" d="M73.6,35.3c3.8,1.2,6.2,4.9,5.8,8.9C79,48,75.9,51.2,72,51.7c0.9-2.5,1.9-6.1,2-10.4
			C74.1,39,73.9,37,73.6,35.3z"/>
		<path class="st0" d="M70.4,42.6c1.9,4.6,1.3,9.3-1.3,11.4c-2.3,1.9-6.2,1.6-7.3,1.5c-1.6-0.1-2.8-0.5-3.7-0.8
			c1.8-0.7,5.1-2.2,8.1-5.4C68.5,46.8,69.7,44.2,70.4,42.6z"/>
		<path class="st0" d="M83.4,54.9c-7.3-1.2-11-0.3-13,0.7c-0.5,0.2-1.7,1-3.5,1.3c-2.2,0.5-4.2,0.2-5.5-0.2
			c0.7,0.6,5.1,4.3,11.4,3.7C79.2,60,82.8,55.7,83.4,54.9L83.4,54.9z"/>
	</g>
	<g>
		<path class="st0" d="M110.8,17.3v7.3l6-7.3h3.8l-6.1,7.5l6.2,7.8h-4.1l-5.8-7.6v7.6h-3.2V17.3C107.6,17.3,110.8,17.3,110.8,17.3z"
			/>
		<path class="st0" d="M121.9,32.6V17.3h3.4v15.3L121.9,32.6L121.9,32.6z"/>
		<path class="st0" d="M131.7,32.4c-0.8-0.2-1.6-0.6-2.3-1.3c-0.6-0.6-1-1.3-1.2-2.1c-0.2-0.8-0.2-1.6-0.2-2.4v-9.1h3.2v8.4
			c0,1.4,0.1,2.5,0.5,3.3c0.3,0.8,1.3,1.1,3,1.1l3.8,0v2.5h-4.1C133.5,32.6,132.6,32.5,131.7,32.4L131.7,32.4z"/>
		<path class="st0" d="M140.2,32.6V17.3h3.4v15.3L140.2,32.6L140.2,32.6z"/>
		<path class="st0" d="M151.5,17.3l3.9,11.7l3.9-11.7h4.7v15.3h-3.1l0.3-11.9l-3.9,11.9h-3.4l-4-12l0.3,12h-3.3V17.3
			C146.8,17.3,151.5,17.3,151.5,17.3z"/>
		<path class="st0" d="M166.5,21.6c0.4-1.1,0.9-2,1.6-2.7c0.7-0.7,1.6-1.2,2.8-1.5c0.4-0.1,0.9-0.2,1.3-0.2s0.9-0.1,1.4-0.1
			c0.5,0,1,0,1.5,0.1c0.5,0.1,1,0.2,1.4,0.3c1.1,0.3,2.1,0.8,2.8,1.5c0.7,0.7,1.3,1.6,1.6,2.7c0.1,0.5,0.3,1,0.3,1.6
			c0.1,0.6,0.1,1.1,0.1,1.7c0,0.6,0,1.2-0.1,1.8s-0.2,1.1-0.3,1.7c-0.3,1.2-0.9,2.1-1.6,2.8c-0.7,0.7-1.7,1.2-2.8,1.5
			c-0.5,0.1-0.9,0.2-1.4,0.2c-0.5,0-1,0.1-1.5,0.1c-0.4,0-0.9,0-1.3-0.1c-0.4-0.1-0.9-0.1-1.3-0.2c-1.2-0.3-2.1-0.8-2.8-1.5
			c-0.7-0.7-1.3-1.6-1.6-2.8c-0.1-0.5-0.3-1-0.3-1.6c-0.1-0.6-0.1-1.2-0.1-1.8c0-0.6,0-1.2,0.1-1.8
			C166.2,22.6,166.4,22.1,166.5,21.6L166.5,21.6L166.5,21.6z M169.8,22.7c-0.1,0.4-0.2,0.8-0.2,1.2c0,0.4-0.1,0.8-0.1,1.2
			s0,0.8,0.1,1.2c0,0.4,0.1,0.8,0.2,1.1c0.2,0.7,0.4,1.2,0.8,1.7c0.4,0.5,0.9,0.8,1.5,1.1c0.2,0.1,0.5,0.2,0.8,0.2
			c0.3,0,0.5,0.1,0.8,0.1c0.3,0,0.5,0,0.8-0.1c0.3,0,0.5-0.1,0.8-0.2c0.7-0.2,1.2-0.6,1.5-1.1c0.4-0.5,0.6-1,0.8-1.7
			c0.1-0.4,0.2-0.7,0.2-1.1c0-0.4,0.1-0.8,0.1-1.2c0-0.4,0-0.8-0.1-1.2c0-0.4-0.1-0.8-0.2-1.1c-0.1-0.7-0.4-1.2-0.8-1.7
			c-0.4-0.5-0.9-0.8-1.5-1.1c-0.2-0.1-0.5-0.2-0.8-0.2c-0.3,0-0.5-0.1-0.8-0.1c-0.3,0-0.5,0-0.8,0.1c-0.3,0-0.5,0.1-0.8,0.2
			c-0.7,0.2-1.2,0.6-1.5,1.1C170.3,21.5,170,22,169.8,22.7L169.8,22.7L169.8,22.7z"/>
		<path class="st0" d="M111.9,38.7l3.5,10.7l3.5-10.7h4.3v13.9h-2.9l0.2-10.8l-3.6,10.8H114l-3.7-10.9l0.3,10.9h-3V38.7H111.9
			L111.9,38.7z"/>
		<path class="st0" d="M129,38.7v6.7l5.5-6.7h3.5l-5.6,6.8l5.6,7.1h-3.7l-5.3-6.9v6.9h-2.9V38.7L129,38.7L129,38.7z"/>
		<path class="st0" d="M138.6,42.6c0.3-1,0.8-1.8,1.5-2.5c0.7-0.6,1.5-1.1,2.6-1.4c0.4-0.1,0.8-0.2,1.2-0.2c0.4,0,0.8-0.1,1.2-0.1
			c0.4,0,0.9,0,1.3,0.1s0.9,0.1,1.3,0.3c1,0.3,1.9,0.7,2.5,1.4c0.7,0.6,1.1,1.5,1.5,2.5c0.1,0.5,0.2,1,0.3,1.5
			c0.1,0.5,0.1,1,0.1,1.5c0,0.6,0,1.1-0.1,1.6c-0.1,0.5-0.2,1-0.3,1.5c-0.3,1-0.8,1.9-1.5,2.5c-0.7,0.6-1.5,1.1-2.6,1.3
			c-0.4,0.1-0.8,0.2-1.3,0.2c-0.4,0-0.9,0.1-1.3,0.1c-0.4,0-0.8,0-1.2-0.1s-0.8-0.1-1.2-0.2c-1-0.2-1.9-0.7-2.6-1.3
			c-0.7-0.6-1.2-1.5-1.5-2.5c-0.1-0.5-0.2-0.9-0.3-1.5c-0.1-0.5-0.1-1.1-0.1-1.6s0-1.1,0.1-1.6C138.3,43.5,138.4,43,138.6,42.6
			L138.6,42.6L138.6,42.6z M141.6,43.6c-0.1,0.3-0.2,0.7-0.2,1.1c0,0.4-0.1,0.7-0.1,1.1s0,0.7,0.1,1.1c0,0.4,0.1,0.7,0.2,1
			c0.1,0.6,0.4,1.1,0.7,1.5c0.3,0.4,0.8,0.8,1.4,1c0.2,0.1,0.5,0.1,0.7,0.2s0.5,0.1,0.7,0.1c0.2,0,0.5,0,0.7-0.1
			c0.2,0,0.5-0.1,0.7-0.2c0.6-0.2,1.1-0.5,1.4-1c0.3-0.4,0.6-1,0.7-1.5c0.1-0.3,0.1-0.7,0.2-1c0-0.4,0.1-0.7,0.1-1.1s0-0.7-0.1-1.1
			c0-0.4-0.1-0.7-0.2-1c-0.1-0.6-0.4-1.1-0.7-1.6c-0.3-0.4-0.8-0.8-1.4-1c-0.2-0.1-0.5-0.1-0.7-0.2c-0.2,0-0.5-0.1-0.7-0.1
			c-0.2,0-0.5,0-0.7,0.1c-0.2,0-0.5,0.1-0.7,0.2c-0.6,0.2-1,0.5-1.4,1C142,42.5,141.7,43,141.6,43.6L141.6,43.6L141.6,43.6z"/>
		<path class="st0" d="M160.4,38.7C160.4,38.7,160.4,38.7,160.4,38.7l0.8,0c0.2,0,0.5,0,0.7,0c0.4,0,0.9,0.1,1.3,0.2
			c0.4,0.1,0.8,0.3,1.2,0.5c0.7,0.4,1.2,0.9,1.5,1.6s0.4,1.4,0.5,2.2c0,0.7-0.1,1.4-0.4,2c-0.3,0.6-0.7,1.2-1.2,1.6
			c-0.5,0.3-1,0.6-1.6,0.7c-0.6,0.1-1.2,0.2-1.8,0.2h-0.9l-3.5,0v4.9H154V38.7L160.4,38.7L160.4,38.7z M160.3,41.2h-3.4v4.1h3.6
			c0.7,0,1.3-0.1,1.8-0.4s0.8-0.8,0.8-1.6c0-0.9-0.2-1.5-0.8-1.7C161.7,41.3,161,41.2,160.3,41.2L160.3,41.2L160.3,41.2z"/>
		<path class="st0" d="M167.9,42.6c0.3-1,0.8-1.8,1.5-2.5c0.7-0.6,1.5-1.1,2.6-1.4c0.4-0.1,0.8-0.2,1.2-0.2c0.4,0,0.8-0.1,1.2-0.1
			c0.4,0,0.9,0,1.3,0.1c0.5,0.1,0.9,0.1,1.3,0.3c1,0.3,1.9,0.7,2.5,1.4c0.7,0.6,1.1,1.5,1.5,2.5c0.1,0.5,0.2,1,0.3,1.5
			c0.1,0.5,0.1,1,0.1,1.5c0,0.6,0,1.1-0.1,1.6c-0.1,0.5-0.2,1-0.3,1.5c-0.3,1-0.8,1.9-1.5,2.5c-0.7,0.6-1.5,1.1-2.6,1.3
			c-0.4,0.1-0.8,0.2-1.3,0.2c-0.4,0-0.9,0.1-1.3,0.1c-0.4,0-0.8,0-1.2-0.1s-0.8-0.1-1.2-0.2c-1-0.2-1.9-0.7-2.6-1.3
			c-0.7-0.6-1.2-1.5-1.5-2.5c-0.1-0.5-0.2-0.9-0.3-1.5c-0.1-0.5-0.1-1.1-0.1-1.6s0-1.1,0.1-1.6C167.6,43.5,167.7,43,167.9,42.6
			L167.9,42.6L167.9,42.6z M170.9,43.6c-0.1,0.3-0.2,0.7-0.2,1.1c0,0.4-0.1,0.7-0.1,1.1s0,0.7,0.1,1.1c0,0.4,0.1,0.7,0.2,1
			c0.1,0.6,0.4,1.1,0.7,1.5c0.3,0.4,0.8,0.8,1.4,1c0.2,0.1,0.5,0.1,0.7,0.2c0.2,0,0.5,0.1,0.7,0.1c0.2,0,0.5,0,0.7-0.1
			c0.2,0,0.5-0.1,0.7-0.2c0.6-0.2,1.1-0.5,1.4-1c0.3-0.4,0.6-1,0.7-1.5c0.1-0.3,0.1-0.7,0.2-1c0-0.4,0.1-0.7,0.1-1.1s0-0.7-0.1-1.1
			c0-0.4-0.1-0.7-0.2-1c-0.1-0.6-0.4-1.1-0.7-1.6c-0.3-0.4-0.8-0.8-1.4-1c-0.2-0.1-0.5-0.1-0.7-0.2s-0.5-0.1-0.7-0.1
			c-0.2,0-0.5,0-0.7,0.1c-0.2,0-0.5,0.1-0.7,0.2c-0.6,0.2-1,0.5-1.4,1C171.3,42.5,171,43,170.9,43.6L170.9,43.6L170.9,43.6z"/>
	</g>
</g>
</svg>
