<?xml version="1.0" encoding="utf-8"?>
<!-- Generator: Adobe Illustrator 28.0.0, SVG Export Plug-In . SVG Version: 6.00 Build 0)  -->
<svg version="1.1" id="Layer_1" xmlns="http://www.w3.org/2000/svg" xmlns:xlink="http://www.w3.org/1999/xlink" x="0px" y="0px"
	 viewBox="0 0 68 68" style="enable-background:new 0 0 68 68;" xml:space="preserve">
<style type="text/css">
	.st0{fill:#FFFFFF;}
</style>
<g>
	<g>
		<path class="st0" d="M30.5,5.6c-3.8,2.6-7.7,5.2-11.5,7.9c0.3,0.6,0.7,1.2,1,1.9c0.3-0.3,0.5-0.6,0.8-0.9l1.3-1.4l0.7,1.7
			c2.7,6.4,3.9,12.9,3.7,19.5c-0.1,3.6-0.2,8.6-3.2,13.8c-0.1,0.3-0.3,0.5-0.4,0.8c0.9-0.9,2-2.1,3.3-3.8c1.7-2.2,4.8-6,6.7-11.1
			c3.2-8.6,1.6-16.5,1-19.3C32.9,10.8,31.5,7.7,30.5,5.6L30.5,5.6z"/>
		<path class="st0" d="M21.6,15.4c-0.4,0.4-0.7,0.8-1.1,1.2c-0.1,0.2-0.3,0.3-0.4,0.5c-1.1,1.2-2.2,2.4-3.4,3.7
			c-1.5,1.6-3.1,3.3-4.6,4.9c0.4,0.5,1,1.2,1.5,2l1.8-2.4l0.9,1.6c2.3,4.2,3.8,9,4.1,13.8c0.1,2,0.1,3.9-0.1,5.8
			c-0.1,0.8-0.2,1.6-0.3,2.3c-0.2,0.9-0.4,1.8-0.6,2.7c0.9-1,1.9-2.3,2.7-3.9c2.8-4.9,2.9-9.5,3-13.2C25.4,26.6,23.5,20,21.6,15.4
			L21.6,15.4z"/>
		<path class="st0" d="M15.3,27.4c-0.3,0.4-4.9,6.4-6.5,8.5c3.5,3,5.3,6,6.1,7.8c0.2,0.4,0.9,2.1,1.5,4.4c0.6,2.6,0.7,4.9,0.7,6.6
			c0.3-0.7,0.7-1.6,1-2.5c0.1-0.5,0.3-0.9,0.4-1.4l0,0c0.7-2.6,1.2-6.1,0.9-10.1C18.8,34.5,16.7,29.8,15.3,27.4L15.3,27.4z"/>
	</g>
	<g>
		<path class="st0" d="M33.2,3.9c1.6,2.7,4,6.1,7.5,9.4c2.7,2.6,5.4,4.5,7.6,5.9c0-1.4,0-5.4-2.7-9.2C41.3,4.1,34,3.9,33.2,3.9z"/>
		<path class="st0" d="M52.3,13.7c-0.7,3.7-1.3,7.9-1.6,12.4c-0.1,2.2-0.2,4.4-0.2,6.4c0.4-0.2,5.5-3.3,5.8-9.4
			C56.6,17.5,52.8,14.1,52.3,13.7L52.3,13.7z"/>
		<path class="st0" d="M39.1,16.7c1,2.5,2.6,5.6,5.1,8.9c1.8,2.3,3.6,4.1,5.2,5.5c0.2-0.7,1.4-4.9-1.1-9
			C45.3,17.1,39.6,16.7,39.1,16.7z"/>
		<path class="st0" d="M38.3,26.4c1.3,2.7,2.6,6.2,3.6,10.4c0.7,3.2,1.1,6.1,1.2,8.6c3.5-2.8,4.9-7.3,3.7-11.5
			C45.6,30,42.3,27.1,38.3,26.4L38.3,26.4z"/>
		<path class="st0" d="M59.2,27.1c-2.4,1.5-6.3,4.4-9.4,9.3c-2.3,3.6-3.5,7-4,9.4c1.4-0.4,7-2.1,10.6-7.8
			C59.3,33.4,59.3,28.8,59.2,27.1L59.2,27.1z"/>
		<path class="st0" d="M57.7,43.8c-3.3,0.5-8.3,1.7-13.6,4.7c-4.2,2.4-7.3,5.1-9.4,7.2c1.5,0.3,7.7,1.5,14.2-2.1
			C54.7,50.4,57,45.3,57.7,43.8z"/>
		<path class="st0" d="M35,35.2c4.3,1.4,7.1,5.6,6.6,10.1c-0.5,4.5-4,8.1-8.5,8.6c1.1-2.9,2.2-6.9,2.3-11.9
			C35.5,39.4,35.3,37.1,35,35.2z"/>
		<path class="st0" d="M31.3,43.5c2.2,5.2,1.5,10.6-1.4,13c-2.7,2.2-7.1,1.8-8.3,1.7c-1.8-0.1-3.2-0.6-4.2-0.9
			c2-0.8,5.8-2.5,9.2-6.2C29.2,48.3,30.6,45.4,31.3,43.5z"/>
		<path class="st0" d="M46.2,57.6c-8.4-1.4-12.6-0.4-14.8,0.8c-0.5,0.3-1.9,1.1-4,1.5c-2.6,0.5-4.8,0.2-6.3-0.2
			c0.9,0.7,5.8,4.9,13,4.2C41.4,63.4,45.5,58.5,46.2,57.6L46.2,57.6z"/>
	</g>
</g>
</svg>
